<mxfile host="app.diagrams.net" modified="2024-02-06T19:02:53.878Z" agent="Mozilla/5.0 (Windows NT 10.0; Win64; x64) AppleWebKit/537.36 (KHTML, like Gecko) Chrome/121.0.0.0 Safari/537.36" etag="1-6TQK4Px0lIucsFcqNS" version="22.1.22" type="device">
  <diagram name="Page-1" id="FJ_tnWH7sWlB-27rk5bH">
    <mxGraphModel dx="1434" dy="738" grid="1" gridSize="10" guides="1" tooltips="1" connect="1" arrows="1" fold="1" page="1" pageScale="1" pageWidth="850" pageHeight="1100" math="0" shadow="0">
      <root>
        <mxCell id="0" />
        <mxCell id="1" parent="0" />
        <mxCell id="pkAvqo1ItDJhByjc6964-2" value="" style="rounded=0;whiteSpace=wrap;html=1;" vertex="1" parent="1">
          <mxGeometry x="212.5" y="60" width="390" height="600" as="geometry" />
        </mxCell>
        <mxCell id="pkAvqo1ItDJhByjc6964-3" value="Top 10 movies" style="text;html=1;strokeColor=none;fillColor=none;align=center;verticalAlign=middle;whiteSpace=wrap;rounded=0;" vertex="1" parent="1">
          <mxGeometry x="337.5" y="110" width="135" height="30" as="geometry" />
        </mxCell>
        <mxCell id="pkAvqo1ItDJhByjc6964-5" value="" style="whiteSpace=wrap;html=1;aspect=fixed;" vertex="1" parent="1">
          <mxGeometry x="337.5" y="180" width="140" height="140" as="geometry" />
        </mxCell>
        <mxCell id="pkAvqo1ItDJhByjc6964-6" value="Movie Image" style="text;html=1;strokeColor=none;fillColor=none;align=center;verticalAlign=middle;whiteSpace=wrap;rounded=0;" vertex="1" parent="1">
          <mxGeometry x="375" y="230" width="60" height="30" as="geometry" />
        </mxCell>
        <mxCell id="pkAvqo1ItDJhByjc6964-7" value="Name" style="text;html=1;strokeColor=none;fillColor=none;align=center;verticalAlign=middle;whiteSpace=wrap;rounded=0;" vertex="1" parent="1">
          <mxGeometry x="375" y="330" width="60" height="30" as="geometry" />
        </mxCell>
        <mxCell id="pkAvqo1ItDJhByjc6964-8" value="Rating" style="text;html=1;strokeColor=none;fillColor=none;align=center;verticalAlign=middle;whiteSpace=wrap;rounded=0;" vertex="1" parent="1">
          <mxGeometry x="375" y="360" width="60" height="30" as="geometry" />
        </mxCell>
        <mxCell id="pkAvqo1ItDJhByjc6964-19" value="" style="whiteSpace=wrap;html=1;aspect=fixed;" vertex="1" parent="1">
          <mxGeometry x="337.5" y="410" width="140" height="140" as="geometry" />
        </mxCell>
        <mxCell id="pkAvqo1ItDJhByjc6964-20" value="Movie Image" style="text;html=1;strokeColor=none;fillColor=none;align=center;verticalAlign=middle;whiteSpace=wrap;rounded=0;" vertex="1" parent="1">
          <mxGeometry x="375" y="460" width="60" height="30" as="geometry" />
        </mxCell>
        <mxCell id="pkAvqo1ItDJhByjc6964-21" value="Name" style="text;html=1;strokeColor=none;fillColor=none;align=center;verticalAlign=middle;whiteSpace=wrap;rounded=0;" vertex="1" parent="1">
          <mxGeometry x="375" y="560" width="60" height="30" as="geometry" />
        </mxCell>
        <mxCell id="pkAvqo1ItDJhByjc6964-22" value="Rating" style="text;html=1;strokeColor=none;fillColor=none;align=center;verticalAlign=middle;whiteSpace=wrap;rounded=0;" vertex="1" parent="1">
          <mxGeometry x="375" y="590" width="60" height="30" as="geometry" />
        </mxCell>
      </root>
    </mxGraphModel>
  </diagram>
</mxfile>
